<?xml version="1.0" encoding="iso-8859-1"?>
<!-- Generator: Adobe Illustrator 16.0.0, SVG Export Plug-In . SVG Version: 6.00 Build 0)  -->
<!DOCTYPE svg PUBLIC "-//W3C//DTD SVG 1.1//EN" "http://www.w3.org/Graphics/SVG/1.1/DTD/svg11.dtd">
<svg version="1.1" id="Capa_1" xmlns="http://www.w3.org/2000/svg" xmlns:xlink="http://www.w3.org/1999/xlink" x="0px" y="0px"
	 width="31.242px" height="31.242px" viewBox="0 0 31.242 31.242" style="enable-background:new 0 0 31.242 31.242;"
	 xml:space="preserve">
<g>
	<g>
		<path d="M4.943,13.614C0.162,14.376,0.341,17.27,0.06,18.65c-0.56,3.459,3.002,7.325,3.002,7.325l-0.203,4.021h5.801l0.443-1.849
			c0,0,0.252,0.422,1.751,0.549c1.498,0.127,1.314-1.702,1.314-1.702s0.998-0.439,0.998-0.771s-0.59-0.757-0.59-0.757
			s0.636,0.115,0.864-0.151c0.229-0.269-0.279-1.233-0.279-1.233s0.781-0.02,1.242-0.526s-1.451-2.007-1.451-2.976
			C14.036,15.277,9.728,12.851,4.943,13.614z"/>
		<path d="M31.183,19.707c-0.281-1.382-0.102-4.273-4.884-5.038c-4.783-0.764-9.092,1.665-8.009,6.967
			c0,0.967-1.913,2.467-1.452,2.975s1.243,0.527,1.243,0.527s-0.509,0.966-0.28,1.232c0.229,0.268,0.865,0.151,0.865,0.151
			s-0.59,0.427-0.59,0.758c0,0.33,0.998,0.771,0.998,0.771s-0.185,1.828,1.313,1.701c1.499-0.127,1.751-0.549,1.751-0.549
			l0.444,1.85h5.8l-0.203-4.021C28.181,27.031,31.742,23.166,31.183,19.707z"/>
		<path d="M14.634,11.467l-1.755,3.064l0.757-0.117c0.05-0.008,5.091-0.79,8.549-1.814c4.536-1.346,7.137-3.577,7.137-6.127
			c-0.001-3.465-4.099-6.284-9.139-6.284c-5.039,0-9.139,2.819-9.139,6.284C11.044,8.438,12.378,10.283,14.634,11.467z
			 M20.183,0.927c4.632,0,8.401,2.487,8.401,5.546c0,3.123-4.622,4.83-6.608,5.419c-2.614,0.774-6.155,1.411-7.689,1.669
			l1.382-2.412l-0.36-0.171c-2.207-1.047-3.523-2.731-3.523-4.505C11.781,3.416,15.551,0.927,20.183,0.927z"/>
	</g>
</g>
<g>
</g>
<g>
</g>
<g>
</g>
<g>
</g>
<g>
</g>
<g>
</g>
<g>
</g>
<g>
</g>
<g>
</g>
<g>
</g>
<g>
</g>
<g>
</g>
<g>
</g>
<g>
</g>
<g>
</g>
</svg>
