<?xml version="1.0" encoding="iso-8859-1"?>
<!-- Generator: Adobe Illustrator 19.0.0, SVG Export Plug-In . SVG Version: 6.00 Build 0)  -->
<svg version="1.1" id="Layer_1" xmlns="http://www.w3.org/2000/svg" xmlns:xlink="http://www.w3.org/1999/xlink" x="0px" y="0px"
	 viewBox="0 0 290.625 290.625" style="enable-background:new 0 0 290.625 290.625;" xml:space="preserve">
<g>
	<g>
		<g>
			<path d="M253.126,0v23.438H93.751c-12.923,0-23.438,10.514-23.438,23.438V75H23.439v37.5h-9.375
				c-7.754,0-14.063,6.309-14.063,14.063l0.014,33.173L5.035,225h6.595c8.672,38.241,42.548,65.625,82.12,65.625
				c39.572,0,73.448-27.384,82.12-65.625h6.595l5.034-65.625v-32.813c0-7.753-6.309-14.063-14.063-14.063h-9.375V84.375h68.119
				l20.944,25.134V187.5h37.5V0H253.126z M32.814,84.375h9.375v14.063h9.375V84.375h9.375v14.063h9.375V84.375h9.375v14.063h9.375
				V84.375h9.375v14.063h9.375V84.375h9.375v14.063h9.375V84.375h9.375v14.063h9.375V84.375h9.375V112.5H32.814V84.375z
				 M93.751,281.25c-34.463,0-64.13-23.339-72.563-56.25h145.125C157.881,257.911,128.213,281.25,93.751,281.25z M164.064,121.875
				h9.375c2.583,0,4.688,2.1,4.688,4.688l0.014,28.125h-14.077v9.375h13.687l-3.966,51.563H13.717l-3.98-51.563h144.952v-9.375
				H9.376v-28.125c0-2.588,2.105-4.688,4.688-4.688h9.375H164.064z M253.127,94.865L236.57,75h-72.506H79.689V46.875
				c0-7.753,6.309-14.063,14.063-14.063h159.375V94.865z M281.251,178.125h-18.75v-57.366V23.438V9.375h18.75V178.125z"/>
			<path d="M146.471,236.723l-8.109-4.697c-1.758,3.028-3.863,5.925-6.253,8.592l6.98,6.262
				C141.906,243.731,144.395,240.314,146.471,236.723z"/>
			<path d="M127.412,257.03l-5.184-7.809c-16.922,11.241-40.027,11.241-56.948,0l-5.184,7.809
				c9.998,6.647,21.638,10.158,33.656,10.158C105.77,267.188,117.409,263.677,127.412,257.03z"/>
		</g>
	</g>
</g>
<g>
</g>
<g>
</g>
<g>
</g>
<g>
</g>
<g>
</g>
<g>
</g>
<g>
</g>
<g>
</g>
<g>
</g>
<g>
</g>
<g>
</g>
<g>
</g>
<g>
</g>
<g>
</g>
<g>
</g>
</svg>
