<?xml version="1.0" encoding="iso-8859-1"?>
<!-- Generator: Adobe Illustrator 19.0.0, SVG Export Plug-In . SVG Version: 6.00 Build 0)  -->
<svg version="1.1" id="Layer_1" xmlns="http://www.w3.org/2000/svg" xmlns:xlink="http://www.w3.org/1999/xlink" x="0px" y="0px"
	 viewBox="0 0 508 508" style="enable-background:new 0 0 508 508;" xml:space="preserve">
<g>
	<g>
		<path d="M228.085,133.1c-20.5-23-51.1-19.9-68.8-1.6c-18.2,18.5-26.1,49.2-25.5,89.7c-5,51.7-53.9,66.7-98.6,68
			c-7.8,0.2-13.9,6.8-13.6,14.6c0.2,7.8,6.6,14.1,14.6,13.6c101.4-3.3,126.9-64,126-99.3c-0.9-27.1,3.9-50.1,17.3-66.8
			c8.3-8.5,18.6-9.1,28,1c30.8,39.2,17.4,108.5-23.7,139.8c-39.9,28-83.7,47.8-130.8,61c-7.5,2-12,9.7-10.1,17.2
			c1.7,6.8,8.8,12.1,17.2,10.1c52.5-15.6,100.9-36.4,141.9-66.7C261.885,259.6,266.985,180.8,228.085,133.1z"/>
	</g>
</g>
<g>
	<g>
		<path d="M201.885,350.9c-6.4-4.9-14.5-3.7-19.8,1.9c-14.6,13.8-54.7,47.2-109.9,57.7c-7.7,1.5-12.7,8.9-11.2,16.5
			c1.4,7.3,8.7,12.8,16.5,11.2c62.5-11.9,107.5-49.4,124-65C208.785,367.6,208.885,356,201.885,350.9z"/>
	</g>
</g>
<g>
	<g>
		<path d="M148.085,450.9c-4.1-6.6-12.8-8.7-19.4-4.6c-10.1,6.3-49.6,16.1-61.2,18.4c-6.7,1.2-11.8,7.2-11.6,14.2
			c0.2,7.7,6.5,13.8,14.1,13.8c0.1,0,0.2,0,0.3,0c4.2-0.1,56.6-12.1,73.2-22.4C150.085,466.2,152.185,457.5,148.085,450.9z"/>
	</g>
</g>
<g>
	<g>
		<path d="M414.085,333.4v-15.7c0-30.1-24.5-54.7-54.7-54.7c-30.1,0-54.7,24.5-54.7,54.7v15.7c-10.4,4.2-17.8,14.3-17.8,26.2v54.7
			c0,15.6,12.7,28.2,28.2,28.2h88.4c15.6,0,28.2-12.7,28.2-28.2v-54.7C431.885,347.7,424.485,337.5,414.085,333.4z M332.985,317.6
			c0-14.6,11.9-26.4,26.4-26.4c14.6,0,26.4,11.9,26.4,26.4v13.7h-52.8V317.6z M403.585,414.2h-88.4v-54.7h88.4V414.2z"/>
	</g>
</g>
<g>
	<g>
		<path d="M375.985,210.8c22.3-94-64.3-205.9-185.1-210.8c-105.5,5.3-195.3,94.1-190.7,191.7c0.3,7.8,6.6,14.1,14.6,13.6
			c7.8-0.3,13.9-6.8,13.6-14.6c-6.7-83.5,80.4-159.9,162.5-162.5c88.3,1.7,182.3,95.3,156.2,182.2c-11.5,1-22.7,3.2-33.4,6.7
			c11.9-76.4-26.5-156.1-123.1-158.7c-56.2,0-111.8,49.8-121.5,113.5c-7.6,41.6-22.9,62.8-45.5,62.8c-7.8,0-14.1,6.3-14.1,14.1
			s6.3,14.1,14.1,14.1c25.2,0,57.6-13.8,71.6-77.7c8.6-61.7,53.6-97.6,96.5-98.6c76.1,3.3,109.6,65.2,90.4,145.3
			c-42.6,26.2-71.2,73.3-71.2,127c0,13.5,2,26.5,5.3,38.9c-12,14.7-25.2,25.6-39.3,32.5c-7,3.4-9.9,11.9-6.4,18.9
			c3.1,6.5,11.1,10,18.9,6.4c13.6-6.7,26.4-16.2,38.3-28.4c4.5,8.7,9.8,16.9,15.8,24.5c-15.5,14.4-34,23.5-57.6,28.3
			c-7.6,1.5-12.6,9-11.1,16.6c1.5,7.5,8.6,12.5,16.6,11.1c28.7-5.8,52.3-17.5,71.6-35.6c26,22.3,59.6,35.9,96.4,35.9
			c81.9,0,148.6-66.9,148.6-149.1C507.985,282.3,450.085,219.1,375.985,210.8z M359.385,479.7c-66.4,0-120.4-54.2-120.4-120.9
			c0-66.6,54-120.9,120.4-120.9s120.4,54.2,120.4,120.9S425.785,479.7,359.385,479.7z"/>
	</g>
</g>
<g>
</g>
<g>
</g>
<g>
</g>
<g>
</g>
<g>
</g>
<g>
</g>
<g>
</g>
<g>
</g>
<g>
</g>
<g>
</g>
<g>
</g>
<g>
</g>
<g>
</g>
<g>
</g>
<g>
</g>
</svg>
