<?xml version="1.0" encoding="iso-8859-1"?>
<!-- Generator: Adobe Illustrator 19.0.0, SVG Export Plug-In . SVG Version: 6.00 Build 0)  -->
<svg version="1.1" id="Layer_1" xmlns="http://www.w3.org/2000/svg" xmlns:xlink="http://www.w3.org/1999/xlink" x="0px" y="0px"
	 viewBox="0 0 496 496" style="enable-background:new 0 0 496 496;" xml:space="preserve">
<g>
	<g>
		<g>
			<path d="M184.576,356.672l15.584-15.584l-45.248-45.248l-15.584,15.584c-1.112-0.496-2.216-0.952-3.328-1.392V288h-24v-32h32v-16
				H96v48H72v22.032c-1.112,0.44-2.216,0.896-3.328,1.392L53.088,295.84L7.84,341.088l15.584,15.584
				c-0.496,1.112-0.952,2.216-1.392,3.328H0v64h22.032c0.44,1.112,0.896,2.216,1.392,3.328L7.84,442.912l45.248,45.248
				l15.584-15.584c1.112,0.496,2.216,0.952,3.328,1.392V496h64v-22.032c1.112-0.44,2.216-0.896,3.328-1.392l15.584,15.584
				l45.248-45.248l-15.584-15.584c0.496-1.112,0.952-2.216,1.392-3.328H208v-64h-22.032
				C185.528,358.888,185.072,357.784,184.576,356.672z M192,408h-17.536l-1.768,5.592c-1.216,3.864-2.856,7.8-4.88,11.672
				l-2.72,5.208l12.448,12.44l-22.624,22.624l-12.44-12.448l-5.208,2.72c-3.872,2.024-7.808,3.664-11.672,4.88l-5.6,1.776V480H88
				v-17.536l-5.592-1.768c-3.864-1.216-7.8-2.856-11.672-4.88l-5.208-2.72l-12.44,12.448L30.464,442.92l12.448-12.44l-2.72-5.208
				c-2.024-3.872-3.664-7.808-4.88-11.672l-1.776-5.6H16v-32h17.536l1.768-5.592c1.216-3.864,2.856-7.8,4.88-11.672l2.72-5.208
				l-12.448-12.44l22.624-22.624l12.44,12.448l5.208-2.72c3.872-2.024,7.808-3.664,11.672-4.88l5.6-1.776V304h32v17.536l5.592,1.768
				c3.864,1.216,7.8,2.856,11.672,4.88l5.208,2.72l12.44-12.448l22.624,22.624l-12.448,12.44l2.72,5.208
				c2.024,3.872,3.664,7.808,4.88,11.672l1.776,5.6H192V408z"/>
			<path d="M104,352c-22.056,0-40,17.944-40,40c0,22.056,17.944,40,40,40c22.056,0,40-17.944,40-40C144,369.944,126.056,352,104,352
				z M104,416c-13.232,0-24-10.768-24-24s10.768-24,24-24s24,10.768,24,24S117.232,416,104,416z"/>
			<path d="M496,424v-64h-22.032c-0.44-1.112-0.896-2.216-1.392-3.328l15.584-15.584l-45.248-45.248l-15.584,15.584
				c-1.112-0.496-2.216-0.952-3.328-1.392V288h-24v-48h-48v16h32v32h-24v22.032c-1.112,0.44-2.216,0.896-3.328,1.392l-15.584-15.584
				l-45.248,45.248l15.584,15.584c-0.496,1.112-0.952,2.216-1.392,3.328H288v64h22.032c0.44,1.112,0.896,2.216,1.392,3.328
				l-15.584,15.584l45.248,45.248l15.584-15.584c1.112,0.496,2.216,0.952,3.328,1.392V496h64v-22.032
				c1.112-0.44,2.216-0.896,3.328-1.392l15.584,15.584l45.248-45.248l-15.584-15.584c0.496-1.112,0.952-2.216,1.392-3.328H496z
				 M465.536,442.912l-22.624,22.624l-12.44-12.448l-5.208,2.72c-3.872,2.024-7.808,3.664-11.672,4.88L408,462.464V480h-32v-17.536
				l-5.592-1.768c-3.864-1.216-7.8-2.856-11.672-4.88l-5.208-2.72l-12.44,12.448l-22.624-22.624l12.448-12.44l-2.72-5.208
				c-2.024-3.872-3.664-7.808-4.88-11.672l-1.776-5.6H304v-32h17.536l1.768-5.592c1.216-3.864,2.856-7.8,4.88-11.672l2.72-5.208
				l-12.448-12.44l22.624-22.624l12.44,12.448l5.208-2.72c3.872-2.024,7.808-3.664,11.672-4.88l5.6-1.776V304h32v17.536l5.592,1.768
				c3.864,1.216,7.8,2.856,11.672,4.88l5.208,2.72l12.44-12.448l22.624,22.624l-12.448,12.44l2.72,5.208
				c2.024,3.872,3.664,7.808,4.88,11.672l1.776,5.6H480v32h-17.536l-1.768,5.592c-1.216,3.864-2.856,7.8-4.88,11.672l-2.72,5.208
				L465.536,442.912z"/>
			<path d="M392,352c-22.056,0-40,17.944-40,40c0,22.056,17.944,40,40,40c22.056,0,40-17.944,40-40C432,369.944,414.056,352,392,352
				z M392,416c-13.232,0-24-10.768-24-24s10.768-24,24-24s24,10.768,24,24S405.232,416,392,416z"/>
			<path d="M312,64H184v112h128V64z M296,160h-96V80h96V160z"/>
			<rect x="216" y="96" width="64" height="16"/>
			<rect x="264" y="128" width="16" height="16"/>
			<rect x="216" y="128" width="32" height="16"/>
			<path d="M64,144h16v-16h16v32h16v-32h16.472c2.064,30.624,15.728,59.232,38.176,80H160v16h16v16h-16v16h16v32h144v-32h16v-16h-16
				v-16h16v-16h-6.648c22.448-20.768,36.112-49.376,38.176-80H384v32h16v-32h16v16h16v-16h16v-16h-16V96h-16v16h-16V80h-16v32
				h-16.408C363.448,49.56,311.472,0,248,0S132.552,49.56,128.408,112H112V80H96v32H80V96H64v16H48v16h16V144z M304,272H192v-16h112
				V272z M304,240H192v-16h112V240z M248,16c57.344,0,104,46.656,104,104c0,33.912-16.664,65.8-44.576,85.28L304,207.672V208H192
				v-0.328l-3.424-2.392C160.664,185.8,144,153.912,144,120C144,62.656,190.656,16,248,16z"/>
		</g>
	</g>
</g>
<g>
</g>
<g>
</g>
<g>
</g>
<g>
</g>
<g>
</g>
<g>
</g>
<g>
</g>
<g>
</g>
<g>
</g>
<g>
</g>
<g>
</g>
<g>
</g>
<g>
</g>
<g>
</g>
<g>
</g>
</svg>
