<?xml version="1.0" encoding="iso-8859-1"?>
<!-- Generator: Adobe Illustrator 19.0.0, SVG Export Plug-In . SVG Version: 6.00 Build 0)  -->
<svg version="1.1" id="Layer_1" xmlns="http://www.w3.org/2000/svg" xmlns:xlink="http://www.w3.org/1999/xlink" x="0px" y="0px"
	 viewBox="0 0 491.518 491.518" style="enable-background:new 0 0 491.518 491.518;" xml:space="preserve">
<g>
	<g>
		<path d="M300.909,375.679L252.627,327.4v-62.366c0-3.792-3.077-6.869-6.869-6.869s-6.869,3.077-6.869,6.869V327.4l-48.286,48.279
			c-2.683,2.683-2.683,7.031,0,9.714c2.683,2.683,7.029,2.683,9.713,0l45.442-45.436l45.439,45.436
			c1.341,1.342,3.099,2.012,4.856,2.012c1.758,0,3.515-0.67,4.857-2.012C303.592,382.71,303.592,378.363,300.909,375.679z"/>
	</g>
</g>
<g>
	<g>
		<path d="M298.557,85.931c-0.623,2.969-1.349,5.868-2.182,8.692c-0.114,0.384-0.194,0.789-0.311,1.17
			c-0.979,3.187-2.111,6.25-3.349,9.219c-0.359,0.862-0.768,1.67-1.149,2.512c-0.938,2.077-1.925,4.099-2.99,6.046
			c-0.523,0.955-1.063,1.882-1.614,2.803c-1.067,1.782-2.194,3.485-3.37,5.136c-0.395,0.555-0.727,1.188-1.134,1.727v0.262
			c0,2.451,0.865,4.761,2.444,6.49c0.714,0.793,1.532,1.555,2.435,2.277c0.085,0.029,0.138,0.117,0.221,0.151
			c0.899,0.36,1.73,0.871,2.374,1.618l0.654,0.764l7.096,3.759l1.151,0.611v-54.34C298.758,85.207,298.636,85.554,298.557,85.931z"
			/>
	</g>
</g>
<g>
	<g>
		<path d="M298.397,24.968c-2.991-8.41-9.798-9.584-9.862-9.592c-1.658-0.238-3.15-1.134-4.117-2.499
			c-0.976-1.365-1.341-3.07-1.024-4.712c0.992-5.047-0.722-6.553-1.293-7.053C281.3,0.404,280.118,0,278.856,0H233.72
			c-22.627,0-41.033,17.993-41.033,40.106V51.07c0.128-0.28,0.298-0.559,0.439-0.839c0.14-0.279,0.282-0.549,0.433-0.828
			c0.619-1.139,1.302-2.27,2.132-3.357c0.005-0.008,0.013-0.015,0.019-0.022c0.809-1.06,1.765-2.059,2.792-3.017
			c0.26-0.243,0.524-0.476,0.798-0.709c1.111-0.948,2.299-1.845,3.664-2.62c0.012-0.008,0.028-0.012,0.042-0.02
			c1.332-0.751,2.838-1.362,4.43-1.896c0.412-0.138,0.83-0.266,1.26-0.386c1.701-0.481,3.492-0.877,5.491-1.063l16.39-0.024
			c3.515,0,6.943-0.469,10.188-1.381c4.427-1.238,8.061-2.959,10.52-4.967c0.715-0.587,1.555-0.92,2.426-1.134
			c0.238-0.059,0.456-0.091,0.7-0.121c0.247-0.031,0.482-0.126,0.73-0.126c0.634,0,1.277,0.095,1.896,0.301l29.553,9.664
			c0.524,0.174,1.024,0.412,1.476,0.722c0.051,0.034,0.245,0.168,0.515,0.363c0.094,0.068,0.171,0.131,0.29,0.22
			c0.256,0.19,0.549,0.424,0.904,0.711c0.17,0.138,0.316,0.259,0.506,0.419c0.423,0.358,0.883,0.774,1.381,1.241
			c0.141,0.134,0.261,0.235,0.408,0.376c0.627,0.608,1.287,1.302,1.963,2.066c0.182,0.207,0.357,0.435,0.54,0.653
			c0.511,0.607,1.015,1.252,1.518,1.944c0.224,0.31,0.436,0.617,0.655,0.944c0.495,0.738,0.961,1.521,1.413,2.342
			c0.16,0.293,0.329,0.562,0.481,0.866c0.061,0.119,0.133,0.223,0.191,0.343v-24.23C298.833,26.633,298.691,25.777,298.397,24.968z"
			/>
	</g>
</g>
<g>
	<g>
		<path d="M204.119,186.921c-2.856-3.301-3.475-7.807-1.618-11.742c0.531-1.143,1.253-2.158,2.11-3.023l-11.996-12.647
			c-0.87-0.919-1.481-1.966-1.971-3.054c-0.137-0.305-0.234-0.606-0.343-0.919c-0.127-0.369-0.322-0.719-0.409-1.097l-21.952,11.615
			h0.008c0.031,0-13.757,8.798-13.757,21.342v32.227h78.233L204.119,186.921z"/>
	</g>
</g>
<g>
	<g>
		<path d="M207.933,121.448c-1.068-1.518-2.099-3.07-3.076-4.686c-0.718-1.183-1.419-2.375-2.088-3.612
			c-0.81-1.5-1.555-3.053-2.29-4.622c-0.603-1.286-1.233-2.537-1.784-3.87c-1.153-2.776-2.208-5.631-3.132-8.576
			c-0.296-0.946-0.513-1.938-0.785-2.9c-0.649-2.288-1.256-4.596-1.766-6.964c-0.093-0.435-0.236-0.841-0.324-1.279v54.227
			l8.886-5.117c0.647-0.756,1.482-1.272,2.386-1.634c0.088-0.036,0.143-0.127,0.232-0.159c0.905-0.722,1.722-1.484,2.435-2.269
			c1.579-1.729,2.444-4.039,2.444-6.49v-0.317C208.662,122.639,208.33,122.005,207.933,121.448z"/>
	</g>
</g>
<g>
	<g>
		<path d="M281.887,49.808l-25.697-8.402c-3.356,2.158-7.418,3.911-12.124,5.236c-4.308,1.214-8.853,1.832-13.488,1.832h-15.827
			c-11.496,1.087-12.282,11.846-12.305,12.306c0.008,21.961,6.371,42.685,17.47,56.497c0.064,0.079,0.588,0.778,0.643,0.857
			c5.522,6.537,14.043,13.781,25.222,13.781c11.155,0,19.668-7.228,24.848-13.289l1.008-1.333c2.775-3.447,5.253-7.327,7.41-11.559
			c5.398-10.591,8.786-23.363,9.764-37.024c0.196-2.733,0.296-5.5,0.296-8.294C288.385,55.243,283.561,51.102,281.887,49.808z"/>
	</g>
</g>
<g>
	<g>
		<path d="M193.575,487.487l-4.642-28.063c-0.888-5.379-4.633-9.886-9.767-11.742l-40.046-14.491l-18.236,33.152
			c-1,1.825-2.864,3.007-4.943,3.141c-0.135,0.008-0.262,0.016-0.397,0.016c-1.935,0-3.76-0.92-4.911-2.491l-13.815-18.811
			l-3.37,4.57c-0.001,0.001-0.002,0.001-0.002,0.001c-0.003,0.005-0.004,0.011-0.007,0.015l-0.444,0.603
			c-0.009,0.011-0.022,0.014-0.03,0.025l-9.975,13.597c-1.15,1.571-2.975,2.491-4.911,2.491c-0.134,0-0.261-0.008-0.396-0.016
			c-2.079-0.134-3.943-1.316-4.943-3.141l-18.236-33.152l-40.043,14.492c-5.133,1.856-8.878,6.363-9.767,11.742l-4.642,28.054
			c-0.23,1.381,0.381,2.356,0.77,2.817c0.389,0.452,1.246,1.222,2.65,1.222h186.683c1.405,0,2.261-0.77,2.65-1.222
			C193.195,489.835,193.805,488.86,193.575,487.487z"/>
	</g>
</g>
<g>
	<g>
		<path d="M125.059,333.356l-16.677-5.855c-1.777-0.627-3.689-0.594-5.459,0.064c-3.57,1.357-8.274,3.102-11.242,4.054
			c-1.96,0.634-4.023,0.952-6.141,0.952H70.149c-1.658,0.349-7.91,2.173-9.973,10.163v24.428v5.815
			c0,0.064,0.722,21.31,14.004,30.102c0.132,0.089,0.227,0.16,0.354,0.247c0,0,0.013,0.002,0.018,0.006
			c0.079,0.054,0.151,0.113,0.23,0.167c1.276,0.879,2.338,1.651,3.333,2.428c6.656,5.236,13.336,8.458,16.43,8.608
			c0.349-0.008,0.69,0.024,1.04,0.064c0.025,0.004,0.152,0.014,0.216,0.019c0.831,0.094,8.681,0.645,17.056-6.922
			c1.944-1.753,4.015-3.364,6.165-4.855c4.176-2.817,12.612-10.574,14.48-30.929v-29.551
			C133.444,342.361,132.358,336.038,125.059,333.356z"/>
	</g>
</g>
<g>
	<g>
		<polygon points="70.307,427.51 66.118,429.014 78.82,452.102 83.176,446.168 83.215,446.112 83.277,446.028 83.279,446.025 
			88.136,439.416 		"/>
	</g>
</g>
<g>
	<g>
		<path d="M132.643,311.919c-1.777-0.429-3.269-1.634-4.062-3.285c-0.793-1.65-0.802-3.57-0.024-5.229
			c0.246-0.587,0.611-2.157,0.191-2.943c-0.278-0.531-1.31-1.23-3.372-1.706H77.669c-14.281,0-25.896,11.623-25.896,25.904v7.03
			c0.241-0.379,0.522-0.667,0.775-1.021c0.328-0.458,0.652-0.892,0.996-1.311c0.68-0.831,1.379-1.579,2.105-2.264
			c0.324-0.306,0.631-0.634,0.96-0.912c1.004-0.852,2.016-1.604,3.018-2.226c0.038-0.024,0.075-0.058,0.112-0.08
			c1.061-0.65,2.078-1.154,3.052-1.586c0.346-0.155,0.638-0.264,0.966-0.394c0.624-0.249,1.201-0.469,1.74-0.641
			c0.311-0.1,0.563-0.18,0.839-0.257c0.502-0.142,0.908-0.248,1.273-0.328c0.189-0.041,0.326-0.079,0.473-0.107
			c0.398-0.078,0.677-0.122,0.75-0.132c0.262-0.031,0.524-0.048,0.786-0.048h15.923c0.849,0,1.658-0.127,2.412-0.365
			c2.808-0.905,7.275-2.57,10.655-3.848c1.123-0.424,2.277-0.743,3.445-0.96c0.555-0.103,1.118-0.11,1.678-0.167
			c0.625-0.063,1.246-0.164,1.874-0.169c0.048-0.002,0.095-0.013,0.143-0.013c0.851,0,1.698,0.107,2.544,0.215
			c0.253,0.033,0.508,0.023,0.76,0.065c1.143,0.19,2.274,0.474,3.377,0.862l16.748,5.879c1.749,0.643,3.283,1.415,4.682,2.257
			c0.484,0.291,0.873,0.619,1.318,0.929c0.847,0.588,1.678,1.177,2.394,1.815c0.439,0.391,0.809,0.789,1.201,1.192
			c0.591,0.607,1.159,1.207,1.653,1.829c0.34,0.427,0.642,0.842,0.94,1.271c0.204,0.293,0.463,0.587,0.648,0.879v-9.909
			C141.68,320.4,139.95,313.672,132.643,311.919z"/>
	</g>
</g>
<g>
	<g>
		<path d="M102.621,426.186c-0.642,0.123-1.28,0.249-1.867,0.33c-0.42,0.057-0.782,0.085-1.173,0.125
			c-0.48,0.048-0.952,0.096-1.382,0.12c-0.375,0.021-0.691,0.028-1.024,0.036c-0.194,0.004-0.429,0.021-0.607,0.021
			c-0.133,0-0.18-0.012-0.304-0.014c-0.774-0.01-1.441-0.04-1.862-0.081c-1.196-0.005-2.431-0.185-3.678-0.439
			c-0.125-0.026-0.243-0.015-0.369-0.044l5.693,3.803l0.767,0.511l2.413-1.609l4.391-2.935
			C103.263,426.089,102.962,426.12,102.621,426.186z"/>
	</g>
</g>
<g>
	<g>
		<polygon points="123.322,427.511 105.498,439.421 114.808,452.102 127.51,429.014 		"/>
	</g>
</g>
<g>
	<g>
		<path d="M491.467,487.479l-4.649-28.046c-0.889-5.395-4.633-9.894-9.767-11.75l-40.046-14.491l-18.228,33.152
			c-1,1.825-2.864,3.007-4.943,3.141c-0.134,0.008-0.262,0.016-0.396,0.016c-1.936,0-3.761-0.92-4.911-2.483l-13.814-18.822
			l-3.736,5.064c-0.001,0.002-0.004,0.002-0.004,0.002l-0.091,0.125l-0.002-0.002l-10.002,13.624
			c-1.15,1.571-2.975,2.491-4.911,2.491c-0.135,0-0.262-0.008-0.396-0.016c-2.079-0.134-3.943-1.316-4.943-3.141L352.4,433.191
			l-40.045,14.491c-5.133,1.856-8.878,6.355-9.767,11.742l-4.649,28.063c-0.229,1.372,0.389,2.348,0.777,2.809
			c0.389,0.452,1.246,1.222,2.643,1.222H488.05c1.397,0,2.253-0.77,2.643-1.222C491.079,489.835,491.697,488.86,491.467,487.479z"/>
	</g>
</g>
<g>
	<g>
		<path d="M422.951,333.348l-16.677-5.848c-1.785-0.627-3.705-0.594-5.467,0.064c-3.554,1.349-8.267,3.102-11.234,4.054
			c-1.959,0.634-4.022,0.952-6.141,0.952h-15.399c-1.658,0.349-7.902,2.173-9.973,10.171v24.42v5.815
			c0,0.064,0.722,21.31,14.004,30.102c0.132,0.089,0.227,0.16,0.354,0.247c0.005,0.005,0.013,0.002,0.018,0.006
			c0.079,0.054,0.151,0.113,0.23,0.167c1.276,0.879,2.338,1.651,3.333,2.428c6.768,5.316,13.21,8.592,16.439,8.608
			c0.356-0.008,0.69,0.024,1.039,0.064c0.024,0.004,0.149,0.012,0.21,0.019c0.811,0.091,8.672,0.66,17.062-6.922
			c1.944-1.753,4.014-3.364,6.164-4.855c4.176-2.817,12.604-10.566,14.471-30.92v-29.559
			C431.329,342.361,430.242,336.03,422.951,333.348z"/>
	</g>
</g>
<g>
	<g>
		<path d="M270.216,177.495c-1-2.245-0.548-4.879,1.15-6.664l17.891-18.859l-7.162-8.347c0,0-0.007-0.005-0.009-0.008l-0.126-0.151
			l-0.085-0.098c-0.078-0.055-0.164-0.11-0.25-0.164c-2.173-1.523-4.109-3.213-5.751-5.03c-1.254-1.379-2.235-2.948-3.082-4.586
			c-8.199,6.885-17.391,10.512-27.011,10.512c-9.633,0-18.83-3.632-27.035-10.533c-0.852,1.651-1.84,3.232-3.106,4.623
			c-1.651,1.816-3.586,3.498-5.744,5.013c-0.088,0.064-0.175,0.119-0.262,0.175l-0.191,0.222c-0.001,0.002-0.005,0.003-0.006,0.005
			l-0.002,0.003l-7.172,8.354l17.89,18.867c1.698,1.785,2.15,4.419,1.15,6.664c-0.991,2.246-3.364,3.682-5.712,3.626l-0.381-0.008
			l30.546,35.282l30.552-35.282l-0.381,0.008C273.541,181.209,271.208,179.741,270.216,177.495z"/>
	</g>
</g>
<g>
	<g>
		<polygon points="421.207,427.515 403.387,439.418 412.7,452.102 425.395,429.014 		"/>
	</g>
</g>
<g>
	<g>
		<path d="M400.656,426.158c-0.685,0.135-1.365,0.269-1.99,0.355c-0.475,0.066-0.888,0.1-1.325,0.141
			c-0.412,0.038-0.822,0.083-1.196,0.104c-0.425,0.024-0.789,0.035-1.162,0.041c-0.165,0.003-0.369,0.018-0.522,0.018
			c-0.121,0-0.163-0.01-0.276-0.012c-0.786-0.011-1.464-0.041-1.889-0.083c-1.188-0.005-2.415-0.182-3.654-0.435
			c-0.136-0.028-0.263-0.017-0.4-0.048l6.125,4.092l0.333,0.222l6.807-4.546C401.203,426.076,400.948,426.101,400.656,426.158z"/>
	</g>
</g>
<g>
	<g>
		<path d="M430.528,311.919c-1.777-0.429-3.269-1.634-4.063-3.285c-0.793-1.65-0.801-3.57-0.024-5.229
			c0.247-0.587,0.611-2.157,0.199-2.943c-0.286-0.531-1.309-1.23-3.372-1.706h-47.707c-14.281,0-25.904,11.623-25.904,25.904v7.037
			c0.239-0.376,0.518-0.66,0.768-1.012c0.333-0.469,0.664-0.912,1.015-1.338c0.676-0.823,1.368-1.564,2.087-2.243
			c0.328-0.31,0.638-0.643,0.972-0.925c1.004-0.852,2.016-1.604,3.018-2.225c0.041-0.026,0.083-0.06,0.124-0.085
			c1.057-0.647,2.069-1.149,3.038-1.58c0.344-0.154,0.635-0.261,0.962-0.392c0.626-0.249,1.203-0.47,1.743-0.641
			c0.309-0.098,0.56-0.18,0.834-0.257c0.505-0.142,0.914-0.248,1.28-0.329c0.185-0.04,0.321-0.078,0.466-0.106
			c0.399-0.078,0.678-0.122,0.751-0.132c0.262-0.031,0.524-0.048,0.786-0.048h15.931c0.849,0,1.659-0.127,2.412-0.365
			c2.809-0.905,7.268-2.563,10.639-3.848c1.13-0.425,2.288-0.743,3.46-0.96c0.554-0.103,1.117-0.11,1.676-0.167
			c0.627-0.063,1.25-0.164,1.878-0.169c0.048-0.002,0.095-0.013,0.143-0.013c0.849,0,1.695,0.107,2.539,0.214
			c0.254,0.032,0.513,0.022,0.766,0.065c1.142,0.19,2.273,0.474,3.375,0.862l16.749,5.871c1.747,0.644,3.281,1.419,4.68,2.261
			c0.485,0.294,0.875,0.623,1.322,0.933c0.846,0.588,1.675,1.177,2.389,1.814c0.439,0.391,0.809,0.789,1.2,1.193
			c0.593,0.61,1.163,1.212,1.658,1.836c0.333,0.419,0.628,0.826,0.921,1.246c0.21,0.302,0.476,0.604,0.666,0.903v-9.918
			C439.572,320.408,437.843,313.672,430.528,311.919z"/>
	</g>
</g>
<g>
	<g>
		<path d="M323.349,165.936l-21.715-11.496c-0.088,0.38-0.284,0.733-0.414,1.104c-0.107,0.309-0.203,0.603-0.338,0.902
			c-0.491,1.091-1.103,2.138-1.969,3.054l-12.004,12.655c0.856,0.865,1.57,1.88,2.11,3.023c1.856,3.943,1.237,8.441-1.619,11.742
			l-28.307,32.704h78.227v-32.227C337.321,175.465,324.706,166.825,323.349,165.936z"/>
	</g>
</g>
<g>
	<g>
		<polygon points="368.198,427.511 364.01,429.014 376.704,452.102 381.068,446.168 381.076,446.151 385.1,440.676 386.021,439.421 
					"/>
	</g>
</g>
<g>
</g>
<g>
</g>
<g>
</g>
<g>
</g>
<g>
</g>
<g>
</g>
<g>
</g>
<g>
</g>
<g>
</g>
<g>
</g>
<g>
</g>
<g>
</g>
<g>
</g>
<g>
</g>
<g>
</g>
</svg>
